<svg width="73" height="73" viewBox="0 0 73 73" fill="none" xmlns="http://www.w3.org/2000/svg">
<g filter="url(#filter0_i_23_2)">
<path d="M14.986 33.813H34.043V42.84H14.986V33.813ZM15.812 57H4.13V15.7H36.521V24.727H15.812V57Z" fill="#F1E4E4"/>
</g>
<g filter="url(#filter1_i_23_2)">
<path d="M51.38 58.84C48.3 58.84 45.5 58.32 42.98 57.28C40.5 56.2 38.44 54.66 36.8 52.66L43.28 44.98C44.4 46.42 45.56 47.52 46.76 48.28C47.96 49 49.22 49.36 50.54 49.36C54.06 49.36 55.82 47.32 55.82 43.24V25.18H41.3V16H67.58V42.52C67.58 48 66.2 52.1 63.44 54.82C60.68 57.5 56.66 58.84 51.38 58.84Z" fill="#F1E4E4"/>
</g>
<defs>
<filter id="filter0_i_23_2" x="4.13" y="15.7" width="36.391" height="45.3" filterUnits="userSpaceOnUse" color-interpolation-filters="sRGB">
<feFlood flood-opacity="0" result="BackgroundImageFix"/>
<feBlend mode="normal" in="SourceGraphic" in2="BackgroundImageFix" result="shape"/>
<feColorMatrix in="SourceAlpha" type="matrix" values="0 0 0 0 0 0 0 0 0 0 0 0 0 0 0 0 0 0 127 0" result="hardAlpha"/>
<feOffset dx="5" dy="4"/>
<feGaussianBlur stdDeviation="2"/>
<feComposite in2="hardAlpha" operator="arithmetic" k2="-1" k3="1"/>
<feColorMatrix type="matrix" values="0 0 0 0 0.429167 0 0 0 0 0.350486 0 0 0 0 0.350486 0 0 0 0.71 0"/>
<feBlend mode="normal" in2="shape" result="effect1_innerShadow_23_2"/>
</filter>
<filter id="filter1_i_23_2" x="36.8" y="16" width="34.78" height="46.84" filterUnits="userSpaceOnUse" color-interpolation-filters="sRGB">
<feFlood flood-opacity="0" result="BackgroundImageFix"/>
<feBlend mode="normal" in="SourceGraphic" in2="BackgroundImageFix" result="shape"/>
<feColorMatrix in="SourceAlpha" type="matrix" values="0 0 0 0 0 0 0 0 0 0 0 0 0 0 0 0 0 0 127 0" result="hardAlpha"/>
<feOffset dx="5" dy="4"/>
<feGaussianBlur stdDeviation="2"/>
<feComposite in2="hardAlpha" operator="arithmetic" k2="-1" k3="1"/>
<feColorMatrix type="matrix" values="0 0 0 0 0.429167 0 0 0 0 0.350486 0 0 0 0 0.350486 0 0 0 0.71 0"/>
<feBlend mode="normal" in2="shape" result="effect1_innerShadow_23_2"/>
</filter>
</defs>
</svg>
